<svg xmlns="http://www.w3.org/2000/svg" viewBox="0 0 100 100">
  <path fill="#000000" transform="translate(-6.390977 100.526316) scale(0.112782 -0.112782)" d="M500 669 680 847H320ZM850 603Q860 603 868 599Q874 596 884 588Q889 584 895 572Q899 564 899 554V454Q899 444 895 436Q892 430 884 420Q878 414 868 409Q860 405 850 405H700V155H650V455H848L850 457V553L848 555H152L150 551V455L152 453H350V153H300V403H150Q140 403 132 407Q126 410 116 418Q110 424 105 434Q101 442 101 452V552Q101 562 105 570Q108 576 116 586Q122 592 132 597Q140 601 150 601H850ZM600 366Q600 344 589.5 326.0Q579 308 562 297L600 204H550L520 280Q510 278 504 278H450V203H400V453H500Q519 453 537.0 447.0Q555 441 569 430Q585 416 591 402Q600 387 600 366ZM500 328Q505 328 517 330Q523 331 533 337Q541 342 545.5 349.5Q550 357 550.0 366.0Q550 375 545.5 383.0Q541 391 534.0 395.0Q527 399 517 402Q505 404 500 404H450V329H500Z"/>
</svg>
